<mxfile host="app.diagrams.net" agent="Mozilla/5.0 (Windows NT 10.0; Win64; x64) AppleWebKit/537.36 (KHTML, like Gecko) Chrome/141.0.0.0 Safari/537.36" version="28.2.8">
  <diagram name="Page-1" id="IP4jB-PGzdu8ovBfrDWI">
    <mxGraphModel grid="1" page="1" gridSize="10" guides="1" tooltips="1" connect="1" arrows="1" fold="1" pageScale="1" pageWidth="1169" pageHeight="827" math="0" shadow="0">
      <root>
        <mxCell id="0" />
        <mxCell id="1" parent="0" />
        <mxCell id="fFX_kCsv8FhQA62NSmje-40" style="edgeStyle=orthogonalEdgeStyle;rounded=0;orthogonalLoop=1;jettySize=auto;html=1;exitX=0.5;exitY=0.5;exitDx=0;exitDy=0;exitPerimeter=0;entryX=0;entryY=0;entryDx=0;entryDy=0;" edge="1" parent="1" source="CoVIBfr9TO0q0XOfza13-1" target="fFX_kCsv8FhQA62NSmje-4">
          <mxGeometry relative="1" as="geometry" />
        </mxCell>
        <mxCell id="fFX_kCsv8FhQA62NSmje-41" style="edgeStyle=orthogonalEdgeStyle;rounded=0;orthogonalLoop=1;jettySize=auto;html=1;exitX=0.5;exitY=0.5;exitDx=0;exitDy=0;exitPerimeter=0;entryX=0;entryY=0.5;entryDx=0;entryDy=0;" edge="1" parent="1" source="CoVIBfr9TO0q0XOfza13-1" target="fFX_kCsv8FhQA62NSmje-5">
          <mxGeometry relative="1" as="geometry" />
        </mxCell>
        <mxCell id="fFX_kCsv8FhQA62NSmje-43" style="edgeStyle=orthogonalEdgeStyle;rounded=0;orthogonalLoop=1;jettySize=auto;html=1;exitX=1;exitY=1;exitDx=0;exitDy=0;exitPerimeter=0;entryX=0;entryY=0.5;entryDx=0;entryDy=0;" edge="1" parent="1" source="CoVIBfr9TO0q0XOfza13-1" target="fFX_kCsv8FhQA62NSmje-7">
          <mxGeometry relative="1" as="geometry" />
        </mxCell>
        <mxCell id="fFX_kCsv8FhQA62NSmje-48" style="edgeStyle=orthogonalEdgeStyle;rounded=0;orthogonalLoop=1;jettySize=auto;html=1;exitX=0.5;exitY=0.5;exitDx=0;exitDy=0;exitPerimeter=0;entryX=0;entryY=0.5;entryDx=0;entryDy=0;" edge="1" parent="1" source="CoVIBfr9TO0q0XOfza13-1" target="fFX_kCsv8FhQA62NSmje-9">
          <mxGeometry relative="1" as="geometry">
            <mxPoint x="145" y="750" as="targetPoint" />
            <Array as="points">
              <mxPoint x="160" y="210" />
              <mxPoint x="160" y="750" />
            </Array>
          </mxGeometry>
        </mxCell>
        <mxCell id="fFX_kCsv8FhQA62NSmje-49" style="edgeStyle=orthogonalEdgeStyle;rounded=0;orthogonalLoop=1;jettySize=auto;html=1;exitX=0.5;exitY=0.5;exitDx=0;exitDy=0;exitPerimeter=0;entryX=0;entryY=0.5;entryDx=0;entryDy=0;" edge="1" parent="1" source="CoVIBfr9TO0q0XOfza13-1" target="fFX_kCsv8FhQA62NSmje-10">
          <mxGeometry relative="1" as="geometry">
            <mxPoint x="140" y="870" as="targetPoint" />
            <Array as="points">
              <mxPoint x="120" y="210" />
              <mxPoint x="120" y="860" />
            </Array>
          </mxGeometry>
        </mxCell>
        <mxCell id="fFX_kCsv8FhQA62NSmje-62" style="edgeStyle=orthogonalEdgeStyle;rounded=0;orthogonalLoop=1;jettySize=auto;html=1;exitX=0.5;exitY=0.5;exitDx=0;exitDy=0;exitPerimeter=0;entryX=0;entryY=0.5;entryDx=0;entryDy=0;" edge="1" parent="1" source="CoVIBfr9TO0q0XOfza13-1" target="fFX_kCsv8FhQA62NSmje-27">
          <mxGeometry relative="1" as="geometry">
            <mxPoint x="70" y="1843.5294117647059" as="targetPoint" />
            <Array as="points">
              <mxPoint x="70" y="210" />
              <mxPoint x="70" y="1860" />
            </Array>
          </mxGeometry>
        </mxCell>
        <mxCell id="fFX_kCsv8FhQA62NSmje-63" style="edgeStyle=orthogonalEdgeStyle;rounded=0;orthogonalLoop=1;jettySize=auto;html=1;exitX=0.5;exitY=0.5;exitDx=0;exitDy=0;exitPerimeter=0;entryX=0;entryY=0.5;entryDx=0;entryDy=0;" edge="1" parent="1" source="CoVIBfr9TO0q0XOfza13-1" target="fFX_kCsv8FhQA62NSmje-28">
          <mxGeometry relative="1" as="geometry">
            <mxPoint x="30" y="1950" as="targetPoint" />
            <Array as="points">
              <mxPoint x="50" y="210" />
              <mxPoint x="50" y="1960" />
            </Array>
          </mxGeometry>
        </mxCell>
        <mxCell id="fFX_kCsv8FhQA62NSmje-64" style="edgeStyle=orthogonalEdgeStyle;rounded=0;orthogonalLoop=1;jettySize=auto;html=1;exitX=0.5;exitY=0.5;exitDx=0;exitDy=0;exitPerimeter=0;entryX=0;entryY=0;entryDx=0;entryDy=0;" edge="1" parent="1" source="CoVIBfr9TO0q0XOfza13-1" target="fFX_kCsv8FhQA62NSmje-26">
          <mxGeometry relative="1" as="geometry">
            <mxPoint x="240" y="1731.1764705882354" as="targetPoint" />
            <Array as="points">
              <mxPoint x="300" y="210" />
              <mxPoint x="300" y="1722" />
            </Array>
          </mxGeometry>
        </mxCell>
        <mxCell id="fFX_kCsv8FhQA62NSmje-65" style="edgeStyle=orthogonalEdgeStyle;rounded=0;orthogonalLoop=1;jettySize=auto;html=1;exitX=0.5;exitY=0.5;exitDx=0;exitDy=0;exitPerimeter=0;entryX=0;entryY=0.5;entryDx=0;entryDy=0;" edge="1" parent="1" source="CoVIBfr9TO0q0XOfza13-1" target="fFX_kCsv8FhQA62NSmje-23">
          <mxGeometry relative="1" as="geometry">
            <mxPoint x="240" y="1500" as="targetPoint" />
            <Array as="points">
              <mxPoint x="100" y="210" />
              <mxPoint x="100" y="1510" />
            </Array>
          </mxGeometry>
        </mxCell>
        <mxCell id="fFX_kCsv8FhQA62NSmje-66" style="edgeStyle=orthogonalEdgeStyle;rounded=0;orthogonalLoop=1;jettySize=auto;html=1;exitX=0.5;exitY=0.5;exitDx=0;exitDy=0;exitPerimeter=0;entryX=0;entryY=0;entryDx=0;entryDy=0;" edge="1" parent="1" source="CoVIBfr9TO0q0XOfza13-1" target="fFX_kCsv8FhQA62NSmje-29">
          <mxGeometry relative="1" as="geometry">
            <Array as="points">
              <mxPoint x="230" y="210" />
              <mxPoint x="230" y="1432" />
            </Array>
          </mxGeometry>
        </mxCell>
        <mxCell id="fFX_kCsv8FhQA62NSmje-67" style="edgeStyle=orthogonalEdgeStyle;rounded=0;orthogonalLoop=1;jettySize=auto;html=1;exitX=0.5;exitY=0.5;exitDx=0;exitDy=0;exitPerimeter=0;entryX=0;entryY=0;entryDx=0;entryDy=0;" edge="1" parent="1" source="CoVIBfr9TO0q0XOfza13-1" target="fFX_kCsv8FhQA62NSmje-22">
          <mxGeometry relative="1" as="geometry">
            <mxPoint x="350" y="1278.235294117647" as="targetPoint" />
            <Array as="points">
              <mxPoint x="290" y="210" />
              <mxPoint x="290" y="1302" />
            </Array>
          </mxGeometry>
        </mxCell>
        <mxCell id="fFX_kCsv8FhQA62NSmje-68" style="edgeStyle=orthogonalEdgeStyle;rounded=0;orthogonalLoop=1;jettySize=auto;html=1;exitX=0.5;exitY=0.5;exitDx=0;exitDy=0;exitPerimeter=0;entryX=0;entryY=0;entryDx=0;entryDy=0;" edge="1" parent="1" source="CoVIBfr9TO0q0XOfza13-1" target="fFX_kCsv8FhQA62NSmje-20">
          <mxGeometry relative="1" as="geometry">
            <Array as="points">
              <mxPoint x="240" y="210" />
              <mxPoint x="240" y="1122" />
            </Array>
          </mxGeometry>
        </mxCell>
        <mxCell id="fFX_kCsv8FhQA62NSmje-69" style="edgeStyle=orthogonalEdgeStyle;rounded=0;orthogonalLoop=1;jettySize=auto;html=1;exitX=0.5;exitY=0.5;exitDx=0;exitDy=0;exitPerimeter=0;entryX=0;entryY=0;entryDx=0;entryDy=0;" edge="1" parent="1" source="CoVIBfr9TO0q0XOfza13-1" target="fFX_kCsv8FhQA62NSmje-21">
          <mxGeometry relative="1" as="geometry">
            <Array as="points">
              <mxPoint x="190" y="210" />
              <mxPoint x="190" y="1222" />
            </Array>
          </mxGeometry>
        </mxCell>
        <mxCell id="CoVIBfr9TO0q0XOfza13-1" value="Rider" style="shape=umlActor;verticalLabelPosition=bottom;verticalAlign=top;html=1;outlineConnect=0;" vertex="1" parent="1">
          <mxGeometry x="160" y="120" width="30" height="60" as="geometry" />
        </mxCell>
        <mxCell id="CoVIBfr9TO0q0XOfza13-4" value="" style="swimlane;startSize=0;" vertex="1" parent="1">
          <mxGeometry x="380" y="150" width="410" height="1870" as="geometry" />
        </mxCell>
        <mxCell id="fFX_kCsv8FhQA62NSmje-4" value="Set Home/work" style="ellipse;whiteSpace=wrap;html=1;" vertex="1" parent="CoVIBfr9TO0q0XOfza13-4">
          <mxGeometry x="30" y="50" width="120" height="80" as="geometry" />
        </mxCell>
        <mxCell id="fFX_kCsv8FhQA62NSmje-5" value="Payment method" style="ellipse;whiteSpace=wrap;html=1;" vertex="1" parent="CoVIBfr9TO0q0XOfza13-4">
          <mxGeometry x="20" y="194" width="120" height="80" as="geometry" />
        </mxCell>
        <mxCell id="fFX_kCsv8FhQA62NSmje-6" value="Wallet" style="ellipse;whiteSpace=wrap;html=1;" vertex="1" parent="CoVIBfr9TO0q0XOfza13-4">
          <mxGeometry x="230" y="114" width="120" height="80" as="geometry" />
        </mxCell>
        <mxCell id="fFX_kCsv8FhQA62NSmje-7" value="Verify Ride with pin" style="ellipse;whiteSpace=wrap;html=1;" vertex="1" parent="CoVIBfr9TO0q0XOfza13-4">
          <mxGeometry x="120" y="320" width="120" height="80" as="geometry" />
        </mxCell>
        <mxCell id="fFX_kCsv8FhQA62NSmje-8" value="Request Ride" style="ellipse;whiteSpace=wrap;html=1;" vertex="1" parent="CoVIBfr9TO0q0XOfza13-4">
          <mxGeometry x="130" y="420" width="120" height="80" as="geometry" />
        </mxCell>
        <mxCell id="fFX_kCsv8FhQA62NSmje-9" value="Sign up/login" style="ellipse;whiteSpace=wrap;html=1;" vertex="1" parent="CoVIBfr9TO0q0XOfza13-4">
          <mxGeometry x="120" y="560" width="120" height="80" as="geometry" />
        </mxCell>
        <mxCell id="fFX_kCsv8FhQA62NSmje-10" value="Logout" style="ellipse;whiteSpace=wrap;html=1;" vertex="1" parent="CoVIBfr9TO0q0XOfza13-4">
          <mxGeometry x="120" y="670" width="120" height="80" as="geometry" />
        </mxCell>
        <mxCell id="fFX_kCsv8FhQA62NSmje-13" value="" style="endArrow=classic;html=1;rounded=0;entryX=0;entryY=1;entryDx=0;entryDy=0;exitX=0.983;exitY=0.3;exitDx=0;exitDy=0;exitPerimeter=0;" edge="1" parent="CoVIBfr9TO0q0XOfza13-4" source="fFX_kCsv8FhQA62NSmje-5" target="fFX_kCsv8FhQA62NSmje-6">
          <mxGeometry relative="1" as="geometry">
            <mxPoint x="140" y="200" as="sourcePoint" />
            <mxPoint x="240" y="200" as="targetPoint" />
          </mxGeometry>
        </mxCell>
        <mxCell id="fFX_kCsv8FhQA62NSmje-14" value="Label" style="edgeLabel;resizable=0;html=1;;align=center;verticalAlign=middle;" connectable="0" vertex="1" parent="fFX_kCsv8FhQA62NSmje-13">
          <mxGeometry relative="1" as="geometry" />
        </mxCell>
        <mxCell id="fFX_kCsv8FhQA62NSmje-15" value="&amp;lt;&amp;lt;extends&amp;gt;&amp;gt;" style="edgeLabel;html=1;align=center;verticalAlign=middle;resizable=0;points=[];" connectable="0" vertex="1" parent="fFX_kCsv8FhQA62NSmje-13">
          <mxGeometry x="-0.0488" y="-1" relative="1" as="geometry">
            <mxPoint as="offset" />
          </mxGeometry>
        </mxCell>
        <mxCell id="fFX_kCsv8FhQA62NSmje-17" value="TreeWayz" style="text;html=1;whiteSpace=wrap;strokeColor=none;fillColor=none;align=center;verticalAlign=middle;rounded=0;" vertex="1" parent="CoVIBfr9TO0q0XOfza13-4">
          <mxGeometry x="175" y="10" width="60" height="30" as="geometry" />
        </mxCell>
        <mxCell id="fFX_kCsv8FhQA62NSmje-18" value="Switch Service (Rider/Driver)&amp;nbsp;" style="ellipse;whiteSpace=wrap;html=1;" vertex="1" parent="CoVIBfr9TO0q0XOfza13-4">
          <mxGeometry x="110" y="770" width="120" height="80" as="geometry" />
        </mxCell>
        <mxCell id="fFX_kCsv8FhQA62NSmje-19" value="Inbox/Notifications" style="ellipse;whiteSpace=wrap;html=1;" vertex="1" parent="CoVIBfr9TO0q0XOfza13-4">
          <mxGeometry x="160" y="860" width="120" height="80" as="geometry" />
        </mxCell>
        <mxCell id="fFX_kCsv8FhQA62NSmje-20" value="View Receipts/Trip history" style="ellipse;whiteSpace=wrap;html=1;" vertex="1" parent="CoVIBfr9TO0q0XOfza13-4">
          <mxGeometry x="160" y="960" width="120" height="80" as="geometry" />
        </mxCell>
        <mxCell id="fFX_kCsv8FhQA62NSmje-21" value="Manage Security (MFA, passkey" style="ellipse;whiteSpace=wrap;html=1;" vertex="1" parent="CoVIBfr9TO0q0XOfza13-4">
          <mxGeometry x="160" y="1060" width="130" height="80" as="geometry" />
        </mxCell>
        <mxCell id="fFX_kCsv8FhQA62NSmje-22" value="&amp;nbsp;Driver/Rider" style="ellipse;whiteSpace=wrap;html=1;" vertex="1" parent="CoVIBfr9TO0q0XOfza13-4">
          <mxGeometry x="30" y="1140" width="120" height="80" as="geometry" />
        </mxCell>
        <mxCell id="fFX_kCsv8FhQA62NSmje-23" value="Complete Trip &amp;amp; Payment" style="ellipse;whiteSpace=wrap;html=1;" vertex="1" parent="CoVIBfr9TO0q0XOfza13-4">
          <mxGeometry x="190" y="1320" width="120" height="80" as="geometry" />
        </mxCell>
        <mxCell id="fFX_kCsv8FhQA62NSmje-24" value="Match Driver" style="ellipse;whiteSpace=wrap;html=1;" vertex="1" parent="CoVIBfr9TO0q0XOfza13-4">
          <mxGeometry x="80" y="1390" width="120" height="80" as="geometry" />
        </mxCell>
        <mxCell id="fFX_kCsv8FhQA62NSmje-25" value="Post a ride (Create Trip Offer)" style="ellipse;whiteSpace=wrap;html=1;" vertex="1" parent="CoVIBfr9TO0q0XOfza13-4">
          <mxGeometry x="160" y="1470" width="120" height="80" as="geometry" />
        </mxCell>
        <mxCell id="fFX_kCsv8FhQA62NSmje-26" value="Start trip" style="ellipse;whiteSpace=wrap;html=1;" vertex="1" parent="CoVIBfr9TO0q0XOfza13-4">
          <mxGeometry x="160" y="1560" width="120" height="80" as="geometry" />
        </mxCell>
        <mxCell id="fFX_kCsv8FhQA62NSmje-27" value="Ride Track Safety Alerts/Live Tracking" style="ellipse;whiteSpace=wrap;html=1;" vertex="1" parent="CoVIBfr9TO0q0XOfza13-4">
          <mxGeometry x="225" y="1670" width="120" height="80" as="geometry" />
        </mxCell>
        <mxCell id="fFX_kCsv8FhQA62NSmje-28" value="Report issue" style="ellipse;whiteSpace=wrap;html=1;" vertex="1" parent="CoVIBfr9TO0q0XOfza13-4">
          <mxGeometry x="235" y="1770" width="120" height="80" as="geometry" />
        </mxCell>
        <mxCell id="fFX_kCsv8FhQA62NSmje-29" value="App" style="ellipse;whiteSpace=wrap;html=1;" vertex="1" parent="CoVIBfr9TO0q0XOfza13-4">
          <mxGeometry x="20" y="1270" width="120" height="80" as="geometry" />
        </mxCell>
        <mxCell id="fFX_kCsv8FhQA62NSmje-30" value="Rate" style="ellipse;whiteSpace=wrap;html=1;" vertex="1" parent="CoVIBfr9TO0q0XOfza13-4">
          <mxGeometry x="225" y="1170" width="120" height="80" as="geometry" />
        </mxCell>
        <mxCell id="fFX_kCsv8FhQA62NSmje-31" value="" style="endArrow=classic;html=1;rounded=0;exitX=1;exitY=0;exitDx=0;exitDy=0;entryX=0;entryY=1;entryDx=0;entryDy=0;" edge="1" parent="CoVIBfr9TO0q0XOfza13-4" source="fFX_kCsv8FhQA62NSmje-29" target="fFX_kCsv8FhQA62NSmje-30">
          <mxGeometry relative="1" as="geometry">
            <mxPoint x="130" y="1260" as="sourcePoint" />
            <mxPoint x="230" y="1260" as="targetPoint" />
          </mxGeometry>
        </mxCell>
        <mxCell id="fFX_kCsv8FhQA62NSmje-32" value="Label" style="edgeLabel;resizable=0;html=1;;align=center;verticalAlign=middle;" connectable="0" vertex="1" parent="fFX_kCsv8FhQA62NSmje-31">
          <mxGeometry relative="1" as="geometry" />
        </mxCell>
        <mxCell id="fFX_kCsv8FhQA62NSmje-33" value="&amp;lt;&amp;lt;extend&amp;gt;&amp;gt;" style="edgeLabel;html=1;align=center;verticalAlign=middle;resizable=0;points=[];" connectable="0" vertex="1" parent="fFX_kCsv8FhQA62NSmje-31">
          <mxGeometry x="0.0409" y="-3" relative="1" as="geometry">
            <mxPoint as="offset" />
          </mxGeometry>
        </mxCell>
        <mxCell id="fFX_kCsv8FhQA62NSmje-34" value="" style="endArrow=classic;html=1;rounded=0;exitX=1;exitY=1;exitDx=0;exitDy=0;entryX=0;entryY=0.5;entryDx=0;entryDy=0;" edge="1" parent="CoVIBfr9TO0q0XOfza13-4" source="fFX_kCsv8FhQA62NSmje-22" target="fFX_kCsv8FhQA62NSmje-30">
          <mxGeometry relative="1" as="geometry">
            <mxPoint x="150" y="1230" as="sourcePoint" />
            <mxPoint x="210" y="1230" as="targetPoint" />
          </mxGeometry>
        </mxCell>
        <mxCell id="fFX_kCsv8FhQA62NSmje-35" value="Label" style="edgeLabel;resizable=0;html=1;;align=center;verticalAlign=middle;" connectable="0" vertex="1" parent="fFX_kCsv8FhQA62NSmje-34">
          <mxGeometry relative="1" as="geometry" />
        </mxCell>
        <mxCell id="fFX_kCsv8FhQA62NSmje-36" value="Text" style="edgeLabel;html=1;align=center;verticalAlign=middle;resizable=0;points=[];" connectable="0" vertex="1" parent="fFX_kCsv8FhQA62NSmje-34">
          <mxGeometry x="-0.0603" y="4" relative="1" as="geometry">
            <mxPoint as="offset" />
          </mxGeometry>
        </mxCell>
        <mxCell id="fFX_kCsv8FhQA62NSmje-37" value="&amp;lt;&amp;lt;extend&amp;gt;&amp;gt;" style="edgeLabel;html=1;align=center;verticalAlign=middle;resizable=0;points=[];" connectable="0" vertex="1" parent="fFX_kCsv8FhQA62NSmje-34">
          <mxGeometry x="-0.0379" y="2" relative="1" as="geometry">
            <mxPoint as="offset" />
          </mxGeometry>
        </mxCell>
        <mxCell id="fFX_kCsv8FhQA62NSmje-45" style="edgeStyle=orthogonalEdgeStyle;rounded=0;orthogonalLoop=1;jettySize=auto;html=1;exitX=0.5;exitY=0.5;exitDx=0;exitDy=0;exitPerimeter=0;entryX=1;entryY=0.5;entryDx=0;entryDy=0;" edge="1" parent="1" source="fFX_kCsv8FhQA62NSmje-2" target="fFX_kCsv8FhQA62NSmje-27">
          <mxGeometry relative="1" as="geometry" />
        </mxCell>
        <mxCell id="fFX_kCsv8FhQA62NSmje-47" style="edgeStyle=orthogonalEdgeStyle;rounded=0;orthogonalLoop=1;jettySize=auto;html=1;exitX=0.5;exitY=0.5;exitDx=0;exitDy=0;exitPerimeter=0;entryX=1;entryY=0.5;entryDx=0;entryDy=0;" edge="1" parent="1" source="fFX_kCsv8FhQA62NSmje-2" target="fFX_kCsv8FhQA62NSmje-28">
          <mxGeometry relative="1" as="geometry">
            <mxPoint x="785" y="1980" as="targetPoint" />
            <Array as="points">
              <mxPoint x="750" y="1860" />
              <mxPoint x="750" y="1960" />
            </Array>
          </mxGeometry>
        </mxCell>
        <mxCell id="fFX_kCsv8FhQA62NSmje-2" value="Admin" style="shape=umlActor;verticalLabelPosition=bottom;verticalAlign=top;html=1;outlineConnect=0;" vertex="1" parent="1">
          <mxGeometry x="910" y="1840" width="30" height="60" as="geometry" />
        </mxCell>
        <mxCell id="fFX_kCsv8FhQA62NSmje-50" style="edgeStyle=orthogonalEdgeStyle;rounded=0;orthogonalLoop=1;jettySize=auto;html=1;exitX=0.5;exitY=0.5;exitDx=0;exitDy=0;exitPerimeter=0;entryX=0;entryY=0.7;entryDx=0;entryDy=0;entryPerimeter=0;" edge="1" parent="1" source="fFX_kCsv8FhQA62NSmje-3" target="fFX_kCsv8FhQA62NSmje-9">
          <mxGeometry relative="1" as="geometry">
            <mxPoint x="210" y="790" as="targetPoint" />
            <Array as="points">
              <mxPoint x="260" y="950" />
              <mxPoint x="260" y="766" />
            </Array>
          </mxGeometry>
        </mxCell>
        <mxCell id="fFX_kCsv8FhQA62NSmje-52" style="edgeStyle=orthogonalEdgeStyle;rounded=0;orthogonalLoop=1;jettySize=auto;html=1;exitX=0.5;exitY=0.5;exitDx=0;exitDy=0;exitPerimeter=0;entryX=0;entryY=0.5;entryDx=0;entryDy=0;" edge="1" parent="1" source="fFX_kCsv8FhQA62NSmje-3" target="fFX_kCsv8FhQA62NSmje-18">
          <mxGeometry relative="1" as="geometry" />
        </mxCell>
        <mxCell id="fFX_kCsv8FhQA62NSmje-53" style="edgeStyle=orthogonalEdgeStyle;rounded=0;orthogonalLoop=1;jettySize=auto;html=1;exitX=0.5;exitY=0.5;exitDx=0;exitDy=0;exitPerimeter=0;entryX=0;entryY=0.5;entryDx=0;entryDy=0;" edge="1" parent="1" source="fFX_kCsv8FhQA62NSmje-3" target="fFX_kCsv8FhQA62NSmje-19">
          <mxGeometry relative="1" as="geometry">
            <Array as="points">
              <mxPoint x="250" y="950" />
              <mxPoint x="250" y="1050" />
            </Array>
          </mxGeometry>
        </mxCell>
        <mxCell id="fFX_kCsv8FhQA62NSmje-54" style="edgeStyle=orthogonalEdgeStyle;rounded=0;orthogonalLoop=1;jettySize=auto;html=1;exitX=0.5;exitY=0.5;exitDx=0;exitDy=0;exitPerimeter=0;entryX=0;entryY=0.5;entryDx=0;entryDy=0;" edge="1" parent="1" source="fFX_kCsv8FhQA62NSmje-3" target="fFX_kCsv8FhQA62NSmje-20">
          <mxGeometry relative="1" as="geometry">
            <Array as="points">
              <mxPoint x="210" y="950" />
              <mxPoint x="210" y="1150" />
            </Array>
          </mxGeometry>
        </mxCell>
        <mxCell id="fFX_kCsv8FhQA62NSmje-55" style="edgeStyle=orthogonalEdgeStyle;rounded=0;orthogonalLoop=1;jettySize=auto;html=1;exitX=0.5;exitY=0.5;exitDx=0;exitDy=0;exitPerimeter=0;entryX=0;entryY=0.5;entryDx=0;entryDy=0;" edge="1" parent="1" source="fFX_kCsv8FhQA62NSmje-3" target="fFX_kCsv8FhQA62NSmje-21">
          <mxGeometry relative="1" as="geometry">
            <Array as="points">
              <mxPoint x="200" y="960" />
              <mxPoint x="200" y="1250" />
            </Array>
          </mxGeometry>
        </mxCell>
        <mxCell id="fFX_kCsv8FhQA62NSmje-56" style="edgeStyle=orthogonalEdgeStyle;rounded=0;orthogonalLoop=1;jettySize=auto;html=1;exitX=0.5;exitY=0.5;exitDx=0;exitDy=0;exitPerimeter=0;entryX=0;entryY=0.5;entryDx=0;entryDy=0;" edge="1" parent="1" source="fFX_kCsv8FhQA62NSmje-3" target="fFX_kCsv8FhQA62NSmje-22">
          <mxGeometry relative="1" as="geometry">
            <mxPoint x="185" y="1340" as="targetPoint" />
            <Array as="points">
              <mxPoint x="185" y="1330" />
            </Array>
          </mxGeometry>
        </mxCell>
        <mxCell id="fFX_kCsv8FhQA62NSmje-57" style="edgeStyle=orthogonalEdgeStyle;rounded=0;orthogonalLoop=1;jettySize=auto;html=1;exitX=0.5;exitY=0.5;exitDx=0;exitDy=0;exitPerimeter=0;entryX=0;entryY=0.5;entryDx=0;entryDy=0;" edge="1" parent="1" source="fFX_kCsv8FhQA62NSmje-3" target="fFX_kCsv8FhQA62NSmje-29">
          <mxGeometry relative="1" as="geometry">
            <Array as="points">
              <mxPoint x="180" y="960" />
              <mxPoint x="180" y="1460" />
            </Array>
          </mxGeometry>
        </mxCell>
        <mxCell id="fFX_kCsv8FhQA62NSmje-58" style="edgeStyle=orthogonalEdgeStyle;rounded=0;orthogonalLoop=1;jettySize=auto;html=1;exitX=0.5;exitY=0.5;exitDx=0;exitDy=0;exitPerimeter=0;entryX=0;entryY=0.5;entryDx=0;entryDy=0;" edge="1" parent="1" source="fFX_kCsv8FhQA62NSmje-3" target="fFX_kCsv8FhQA62NSmje-24">
          <mxGeometry relative="1" as="geometry">
            <Array as="points">
              <mxPoint x="160" y="960" />
              <mxPoint x="160" y="1550" />
            </Array>
          </mxGeometry>
        </mxCell>
        <mxCell id="fFX_kCsv8FhQA62NSmje-60" style="edgeStyle=orthogonalEdgeStyle;rounded=0;orthogonalLoop=1;jettySize=auto;html=1;exitX=0.5;exitY=0.5;exitDx=0;exitDy=0;exitPerimeter=0;entryX=0;entryY=0.5;entryDx=0;entryDy=0;" edge="1" parent="1" source="fFX_kCsv8FhQA62NSmje-3" target="fFX_kCsv8FhQA62NSmje-25">
          <mxGeometry relative="1" as="geometry">
            <mxPoint x="200" y="1687.0588235294117" as="targetPoint" />
            <Array as="points">
              <mxPoint x="130" y="950" />
              <mxPoint x="130" y="1660" />
            </Array>
          </mxGeometry>
        </mxCell>
        <mxCell id="fFX_kCsv8FhQA62NSmje-61" style="edgeStyle=orthogonalEdgeStyle;rounded=0;orthogonalLoop=1;jettySize=auto;html=1;exitX=0.5;exitY=0.5;exitDx=0;exitDy=0;exitPerimeter=0;entryX=0;entryY=0.5;entryDx=0;entryDy=0;" edge="1" parent="1" source="fFX_kCsv8FhQA62NSmje-3" target="fFX_kCsv8FhQA62NSmje-26">
          <mxGeometry relative="1" as="geometry">
            <mxPoint x="90" y="1735.2941176470588" as="targetPoint" />
            <Array as="points">
              <mxPoint x="90" y="950" />
              <mxPoint x="90" y="1750" />
            </Array>
          </mxGeometry>
        </mxCell>
        <mxCell id="fFX_kCsv8FhQA62NSmje-3" value="Driver" style="shape=umlActor;verticalLabelPosition=bottom;verticalAlign=top;html=1;outlineConnect=0;" vertex="1" parent="1">
          <mxGeometry x="-30" y="900" width="30" height="60" as="geometry" />
        </mxCell>
        <mxCell id="fFX_kCsv8FhQA62NSmje-16" style="edgeStyle=orthogonalEdgeStyle;rounded=0;orthogonalLoop=1;jettySize=auto;html=1;exitX=0.25;exitY=0.1;exitDx=0;exitDy=0;exitPerimeter=0;entryX=0.5;entryY=0;entryDx=0;entryDy=0;entryPerimeter=0;" edge="1" parent="1" source="fFX_kCsv8FhQA62NSmje-2" target="fFX_kCsv8FhQA62NSmje-2">
          <mxGeometry relative="1" as="geometry" />
        </mxCell>
        <mxCell id="fFX_kCsv8FhQA62NSmje-44" value="" style="curved=1;endArrow=classic;html=1;rounded=0;entryX=-0.025;entryY=0.288;entryDx=0;entryDy=0;entryPerimeter=0;exitX=0;exitY=1;exitDx=0;exitDy=0;exitPerimeter=0;" edge="1" parent="1" source="CoVIBfr9TO0q0XOfza13-1" target="fFX_kCsv8FhQA62NSmje-8">
          <mxGeometry width="50" height="50" relative="1" as="geometry">
            <mxPoint x="180" y="620" as="sourcePoint" />
            <mxPoint x="230" y="570" as="targetPoint" />
            <Array as="points">
              <mxPoint x="230" y="620" />
              <mxPoint x="180" y="570" />
            </Array>
          </mxGeometry>
        </mxCell>
        <mxCell id="fFX_kCsv8FhQA62NSmje-51" style="edgeStyle=orthogonalEdgeStyle;rounded=0;orthogonalLoop=1;jettySize=auto;html=1;exitX=0.5;exitY=0.5;exitDx=0;exitDy=0;exitPerimeter=0;entryX=-0.008;entryY=0.725;entryDx=0;entryDy=0;entryPerimeter=0;" edge="1" parent="1" source="fFX_kCsv8FhQA62NSmje-3" target="fFX_kCsv8FhQA62NSmje-10">
          <mxGeometry relative="1" as="geometry">
            <Array as="points">
              <mxPoint x="280" y="950" />
              <mxPoint x="280" y="878" />
            </Array>
          </mxGeometry>
        </mxCell>
        <mxCell id="fFX_kCsv8FhQA62NSmje-59" style="edgeStyle=orthogonalEdgeStyle;rounded=0;orthogonalLoop=1;jettySize=auto;html=1;exitX=0.5;exitY=0.5;exitDx=0;exitDy=0;exitPerimeter=0;entryX=0.004;entryY=0.597;entryDx=0;entryDy=0;entryPerimeter=0;" edge="1" parent="1" source="fFX_kCsv8FhQA62NSmje-3" target="fFX_kCsv8FhQA62NSmje-23">
          <mxGeometry relative="1" as="geometry">
            <Array as="points">
              <mxPoint x="140" y="950" />
              <mxPoint x="140" y="1518" />
            </Array>
          </mxGeometry>
        </mxCell>
      </root>
    </mxGraphModel>
  </diagram>
</mxfile>
